<svg width="15" height="15" viewBox="0 0 15 15" fill="none" xmlns="http://www.w3.org/2000/svg">
<path fill-rule="evenodd" clip-rule="evenodd" d="M0.356079 0.37204C0.467563 0.260168 0.600018 0.171407 0.74588 0.11084C0.891742 0.050274 1.04815 0.0191046 1.20609 0.0191046C1.36402 0.0191046 1.5204 0.050274 1.66626 0.11084C1.81212 0.171407 1.94458 0.260168 2.05606 0.37204L7.20407 5.52005L12.3561 0.36905C12.4662 0.253965 12.5985 0.162451 12.7451 0.100052C12.8913 0.0366166 13.0487 0.00262942 13.2081 4.63353e-05C13.3675 -0.00135956 13.5256 0.0292408 13.6731 0.0900427C13.8205 0.150379 13.9544 0.23947 14.067 0.352097C14.1796 0.464724 14.2687 0.59864 14.3291 0.746049C14.3899 0.893468 14.4205 1.05159 14.4191 1.21104C14.4165 1.37045 14.3825 1.52778 14.3191 1.67404C14.2563 1.82039 14.1648 1.95267 14.0501 2.06305L8.90408 7.22005L14.0551 12.372C14.2805 12.5975 14.4072 12.9032 14.4072 13.222C14.4072 13.5409 14.2805 13.8466 14.0551 14.0721C13.8297 14.2975 13.5239 14.4241 13.2051 14.4241C12.8863 14.4241 12.5805 14.2975 12.3551 14.0721L7.20407 8.92004L2.05206 14.071C1.82663 14.2965 1.52087 14.4231 1.20206 14.4231C0.883245 14.4231 0.577515 14.2965 0.352081 14.071C0.126647 13.8456 1.00777e-08 13.5399 0 13.2211C-1.00777e-08 12.9022 0.126647 12.5965 0.352081 12.371L5.50406 7.22005L0.353058 2.06805C0.241186 1.95657 0.152424 1.82409 0.0918579 1.67822C0.0312915 1.53236 0.00012207 1.37599 0.00012207 1.21805C0.00012207 1.06011 0.0312915 0.903721 0.0918579 0.757859C0.152424 0.611997 0.241186 0.479527 0.353058 0.368043" fill="black"/>
</svg>
